<svg width="32" height="32" viewBox="0 0 32 32" fill="none" xmlns="http://www.w3.org/2000/svg">
<g opacity="0.2">
<path d="M13.6346 0V1.90087C14.3709 1.90087 14.9701 2.5 14.9701 3.23638V6.55587L12.5456 8.96481C9.74513 11.7474 7.89313 15.2714 7.1897 19.1561L9.06026 19.4948C9.69401 15.995 11.3625 12.8202 13.8855 10.3133L15.952 8.26006L16.871 7.87619V3.23638C16.8709 1.45181 15.4191 0 13.6346 0Z" fill="#D2985B"/>
<path d="M19.3583 8.96486L16.6475 6.27148L16.2953 6.97155L15.9519 8.26011L18.0184 10.3134C20.5415 12.8203 22.21 15.9951 22.8437 19.4949L24.7142 19.1561C24.0109 15.2715 22.1588 11.7474 19.3583 8.96486Z" fill="#C6885B"/>
<path d="M30.3994 0.830566V1.89544C30.3994 5.41057 27.5498 8.26013 24.0347 8.26013L15.952 8.26L20.0362 3.44613L30.3994 0.830566Z" fill="#6DE349"/>
<path d="M30.3994 0.830629L15.952 8.26V7.19525C15.952 3.68013 18.8015 0.830566 22.3167 0.830566H30.3994V0.830629Z" fill="#ACF745"/>
<path d="M8.12002 31.9999C11.7206 31.9999 14.6394 29.0811 14.6394 25.4806C14.6394 21.88 11.7206 18.9612 8.12002 18.9612C4.51947 18.9612 1.60065 21.88 1.60065 25.4806C1.60065 29.0811 4.51947 31.9999 8.12002 31.9999Z" fill="#FF608B"/>
<path d="M23.7226 31.9999C27.3232 31.9999 30.242 29.0811 30.242 25.4806C30.242 21.88 27.3232 18.9612 23.7226 18.9612C20.1221 18.9612 17.2032 21.88 17.2032 25.4806C17.2032 29.0811 20.1221 31.9999 23.7226 31.9999Z" fill="#EA2A78"/>
</g>
</svg>
